<mxfile host="app.diagrams.net" modified="2023-09-27T12:44:48.244Z" agent="Mozilla/5.0 (X11; Ubuntu; Linux x86_64; rv:109.0) Gecko/20100101 Firefox/117.0" etag="G-6w-IC-2BDNua4Cr89R" version="21.8.2" type="device">
  <diagram name="Page-1" id="lZIOslRT0oEuY_ROMTBl">
    <mxGraphModel dx="660" dy="1004" grid="1" gridSize="10" guides="1" tooltips="1" connect="1" arrows="1" fold="1" page="1" pageScale="1" pageWidth="1169" pageHeight="827" math="0" shadow="0">
      <root>
        <mxCell id="0" />
        <mxCell id="1" parent="0" />
        <mxCell id="j-FZtMcil6Uh2wWwceDC-28" value="&lt;b&gt;&lt;font style=&quot;font-size: 18px;&quot;&gt;User&lt;/font&gt;&lt;/b&gt;" style="swimlane;childLayout=stackLayout;horizontal=1;startSize=50;horizontalStack=0;rounded=1;fontSize=14;fontStyle=0;strokeWidth=2;resizeParent=0;resizeLast=1;shadow=0;dashed=0;align=center;arcSize=4;whiteSpace=wrap;html=1;fillColor=#6ABAF0;strokeColor=#10739e;" vertex="1" parent="1">
          <mxGeometry x="338" y="300" width="202" height="460" as="geometry">
            <mxRectangle x="425" y="280" width="80" height="50" as="alternateBounds" />
          </mxGeometry>
        </mxCell>
        <mxCell id="j-FZtMcil6Uh2wWwceDC-137" value="" style="edgeStyle=orthogonalEdgeStyle;fontSize=12;html=1;endArrow=ERmandOne;rounded=0;exitX=1;exitY=0.25;exitDx=0;exitDy=0;elbow=vertical;entryX=-0.011;entryY=0.475;entryDx=0;entryDy=0;entryPerimeter=0;" edge="1" parent="j-FZtMcil6Uh2wWwceDC-28" target="j-FZtMcil6Uh2wWwceDC-130">
          <mxGeometry width="100" height="100" relative="1" as="geometry">
            <mxPoint x="206" y="202" as="sourcePoint" />
            <mxPoint x="282" y="60" as="targetPoint" />
            <Array as="points">
              <mxPoint x="262" y="202" />
              <mxPoint x="262" y="91" />
            </Array>
          </mxGeometry>
        </mxCell>
        <mxCell id="j-FZtMcil6Uh2wWwceDC-126" value="" style="edgeStyle=orthogonalEdgeStyle;fontSize=12;html=1;endArrow=ERmandOne;rounded=0;exitX=1;exitY=0.25;exitDx=0;exitDy=0;entryX=0.5;entryY=1;entryDx=0;entryDy=0;elbow=vertical;" edge="1" parent="j-FZtMcil6Uh2wWwceDC-28" source="j-FZtMcil6Uh2wWwceDC-29" target="j-FZtMcil6Uh2wWwceDC-75">
          <mxGeometry width="100" height="100" relative="1" as="geometry">
            <mxPoint x="434" y="101" as="sourcePoint" />
            <mxPoint x="252" y="-180" as="targetPoint" />
            <Array as="points">
              <mxPoint x="202" y="150" />
              <mxPoint x="242" y="150" />
              <mxPoint x="242" y="-40" />
              <mxPoint x="101" y="-40" />
            </Array>
          </mxGeometry>
        </mxCell>
        <mxCell id="j-FZtMcil6Uh2wWwceDC-29" value="&lt;div&gt;&lt;font face=&quot;Lucida Console&quot;&gt;id:&lt;font color=&quot;#57e389&quot;&gt;number&lt;/font&gt;&lt;/font&gt;&lt;/div&gt;&lt;div&gt;&lt;font face=&quot;Lucida Console&quot;&gt;&lt;font color=&quot;#57e389&quot;&gt;&lt;br&gt;&lt;/font&gt;&lt;/font&gt;&lt;/div&gt;&lt;div&gt;&lt;font face=&quot;Lucida Console&quot;&gt;matchmaking&lt;font color=&quot;#57e389&quot;&gt;:Matchmaking&lt;br&gt;&lt;/font&gt;&lt;/font&gt;&lt;/div&gt;&lt;div&gt;&lt;div&gt;&lt;font face=&quot;Lucida Console&quot;&gt;&lt;br&gt;&lt;/font&gt;&lt;/div&gt;&lt;div&gt;&lt;font face=&quot;Lucida Console&quot;&gt;achievement:&lt;font color=&quot;#57e389&quot;&gt;Achievement&lt;/font&gt;&lt;/font&gt;&lt;div&gt;&lt;font face=&quot;Lucida Console&quot;&gt;&lt;br&gt;&lt;/font&gt;&lt;/div&gt;&lt;div&gt;&lt;font face=&quot;Lucida Console&quot;&gt;stats:&lt;font color=&quot;#57e389&quot;&gt;Stats&lt;/font&gt;&lt;/font&gt;&lt;/div&gt;&lt;/div&gt;&lt;/div&gt;&lt;div&gt;&lt;div&gt;&lt;font face=&quot;Lucida Console&quot;&gt;&lt;br&gt;&lt;/font&gt;&lt;/div&gt;&lt;div&gt;&lt;font face=&quot;Lucida Console&quot;&gt;trainingStrory:&lt;font color=&quot;#57e389&quot;&gt;Story&lt;/font&gt;&lt;/font&gt;&lt;/div&gt;&lt;/div&gt;&lt;div&gt;&lt;div&gt;&lt;div&gt;&lt;div&gt;&lt;div&gt;&lt;div&gt;&lt;div&gt;&lt;div&gt;&lt;font face=&quot;Lucida Console&quot;&gt;&lt;br&gt;&lt;/font&gt;&lt;/div&gt;&lt;div&gt;&lt;font face=&quot;Lucida Console&quot;&gt;gameKey:&lt;font color=&quot;#57e389&quot;&gt;string&lt;/font&gt;&lt;/font&gt;&lt;/div&gt;&lt;/div&gt;&lt;/div&gt;&lt;/div&gt;&lt;/div&gt;&lt;/div&gt;&lt;/div&gt;&lt;/div&gt;&lt;div&gt;&lt;div&gt;&lt;div&gt;&lt;div&gt;&lt;font face=&quot;Lucida Console&quot;&gt;&lt;br&gt;&lt;/font&gt;&lt;/div&gt;&lt;div&gt;&lt;font face=&quot;Lucida Console&quot;&gt;trainingLevel:&lt;font color=&quot;#57e389&quot;&gt;number&lt;/font&gt;&lt;/font&gt;&lt;/div&gt;&lt;/div&gt;&lt;/div&gt;&lt;/div&gt;&lt;div&gt;&lt;font face=&quot;Lucida Console&quot; color=&quot;#808080&quot;&gt;&lt;br&gt;&lt;/font&gt;&lt;/div&gt;&lt;div&gt;&lt;font face=&quot;Lucida Console&quot; color=&quot;#808080&quot;&gt;[...]&lt;/font&gt;&lt;font face=&quot;Lucida Console&quot;&gt;&lt;br&gt;&lt;/font&gt;&lt;/div&gt;" style="align=left;strokeColor=none;fillColor=none;spacingLeft=4;fontSize=12;verticalAlign=top;resizable=0;rotatable=0;part=1;html=1;" vertex="1" parent="j-FZtMcil6Uh2wWwceDC-28">
          <mxGeometry y="50" width="202" height="410" as="geometry" />
        </mxCell>
        <mxCell id="j-FZtMcil6Uh2wWwceDC-70" value="&lt;b&gt;Matchmaking&lt;/b&gt;" style="swimlane;childLayout=stackLayout;horizontal=1;startSize=50;horizontalStack=0;rounded=1;fontSize=14;fontStyle=0;strokeWidth=2;resizeParent=0;resizeLast=1;shadow=0;dashed=0;align=center;arcSize=4;whiteSpace=wrap;html=1;fillColor=#d5e8d4;strokeColor=#82b366;" vertex="1" parent="1">
          <mxGeometry x="40" y="40" width="175" height="150" as="geometry">
            <mxRectangle x="425" y="280" width="80" height="50" as="alternateBounds" />
          </mxGeometry>
        </mxCell>
        <mxCell id="j-FZtMcil6Uh2wWwceDC-71" value="&lt;div&gt;&lt;font face=&quot;Lucida Console&quot;&gt;id:&lt;font color=&quot;#57e389&quot;&gt;number&lt;/font&gt;&lt;/font&gt;&lt;/div&gt;&lt;div&gt;&lt;div&gt;&lt;font face=&quot;Lucida Console&quot;&gt;userId:&lt;font color=&quot;#57e389&quot;&gt;number&lt;/font&gt;&lt;/font&gt;&lt;div&gt;&lt;font face=&quot;Lucida Console&quot;&gt;type:&lt;font color=&quot;#57e389&quot;&gt;string&lt;/font&gt;&lt;/font&gt;&lt;/div&gt;&lt;/div&gt;&lt;/div&gt;&lt;div&gt;&lt;div&gt;&lt;font face=&quot;Lucida Console&quot;&gt;searching:&lt;font color=&quot;#57e389&quot;&gt;boolean&lt;/font&gt;&lt;/font&gt;&lt;/div&gt;&lt;div&gt;&lt;font face=&quot;Lucida Console&quot; color=&quot;#808080&quot;&gt;[...]&lt;/font&gt;&lt;font face=&quot;Lucida Console&quot;&gt;&lt;br&gt;&lt;/font&gt;&lt;/div&gt;&lt;/div&gt;" style="align=left;strokeColor=none;fillColor=none;spacingLeft=4;fontSize=12;verticalAlign=top;resizable=0;rotatable=0;part=1;html=1;" vertex="1" parent="j-FZtMcil6Uh2wWwceDC-70">
          <mxGeometry y="50" width="175" height="100" as="geometry" />
        </mxCell>
        <mxCell id="j-FZtMcil6Uh2wWwceDC-74" value="&lt;b&gt;Stats&lt;/b&gt;" style="swimlane;childLayout=stackLayout;horizontal=1;startSize=50;horizontalStack=0;rounded=1;fontSize=14;fontStyle=0;strokeWidth=2;resizeParent=0;resizeLast=1;shadow=0;dashed=0;align=center;arcSize=4;whiteSpace=wrap;html=1;fillColor=#dae8fc;strokeColor=#6c8ebf;" vertex="1" parent="1">
          <mxGeometry x="351.5" y="40" width="175" height="200" as="geometry">
            <mxRectangle x="425" y="280" width="80" height="50" as="alternateBounds" />
          </mxGeometry>
        </mxCell>
        <mxCell id="j-FZtMcil6Uh2wWwceDC-75" value="&lt;div&gt;&lt;font face=&quot;Lucida Console&quot;&gt;id:&lt;font color=&quot;#57e389&quot;&gt;number&lt;/font&gt;&lt;/font&gt;&lt;/div&gt;&lt;div&gt;&lt;div&gt;&lt;font face=&quot;Lucida Console&quot;&gt;userId:&lt;font color=&quot;#57e389&quot;&gt;number&lt;/font&gt;&lt;/font&gt;&lt;div&gt;&lt;font face=&quot;Lucida Console&quot;&gt;playerXP:&lt;font color=&quot;#57e389&quot;&gt;number&lt;/font&gt;&lt;/font&gt;&lt;/div&gt;&lt;/div&gt;&lt;/div&gt;&lt;div&gt;&lt;div&gt;&lt;font face=&quot;Lucida Console&quot;&gt;level:&lt;font color=&quot;#57e389&quot;&gt;number&lt;/font&gt;&lt;/font&gt;&lt;/div&gt;&lt;div&gt;&lt;font face=&quot;Lucida Console&quot;&gt;storyLevel&lt;font color=&quot;#57e389&quot;&gt;:number&lt;br&gt;&lt;/font&gt;&lt;/font&gt;&lt;/div&gt;&lt;div&gt;&lt;font face=&quot;Lucida Console&quot;&gt;leagueClassicWon&lt;font color=&quot;#57e389&quot;&gt;:number&lt;br&gt;&lt;/font&gt;&lt;/font&gt;&lt;/div&gt;&lt;/div&gt;&lt;div&gt;&lt;font face=&quot;Lucida Console&quot;&gt;partyClassicWon&lt;font color=&quot;#57e389&quot;&gt;:number&lt;/font&gt;&lt;/font&gt;&lt;/div&gt;&lt;div&gt;&lt;font face=&quot;Lucida Console&quot; color=&quot;#808080&quot;&gt;[...]&lt;/font&gt;&lt;font face=&quot;Lucida Console&quot;&gt;&lt;br&gt;&lt;/font&gt;&lt;/div&gt;" style="align=left;strokeColor=none;fillColor=none;spacingLeft=4;fontSize=12;verticalAlign=top;resizable=0;rotatable=0;part=1;html=1;" vertex="1" parent="j-FZtMcil6Uh2wWwceDC-74">
          <mxGeometry y="50" width="175" height="150" as="geometry" />
        </mxCell>
        <mxCell id="j-FZtMcil6Uh2wWwceDC-119" value="" style="edgeStyle=orthogonalEdgeStyle;fontSize=12;html=1;endArrow=ERmandOne;rounded=0;exitX=-0.011;exitY=0.134;exitDx=0;exitDy=0;exitPerimeter=0;entryX=1.004;entryY=0.414;entryDx=0;entryDy=0;entryPerimeter=0;" edge="1" parent="1" source="j-FZtMcil6Uh2wWwceDC-29" target="j-FZtMcil6Uh2wWwceDC-71">
          <mxGeometry width="100" height="100" relative="1" as="geometry">
            <mxPoint x="250" y="460" as="sourcePoint" />
            <mxPoint x="250" y="160" as="targetPoint" />
          </mxGeometry>
        </mxCell>
        <mxCell id="j-FZtMcil6Uh2wWwceDC-120" value="&lt;b&gt;Achievement&lt;/b&gt;" style="swimlane;childLayout=stackLayout;horizontal=1;startSize=50;horizontalStack=0;rounded=1;fontSize=14;fontStyle=0;strokeWidth=2;resizeParent=0;resizeLast=1;shadow=0;dashed=0;align=center;arcSize=4;whiteSpace=wrap;html=1;fillColor=#ffe6cc;strokeColor=#d79b00;" vertex="1" parent="1">
          <mxGeometry x="40" y="240" width="175" height="270" as="geometry">
            <mxRectangle x="425" y="280" width="80" height="50" as="alternateBounds" />
          </mxGeometry>
        </mxCell>
        <mxCell id="j-FZtMcil6Uh2wWwceDC-121" value="&lt;div&gt;&lt;font face=&quot;Lucida Console&quot;&gt;id:&lt;font color=&quot;#57e389&quot;&gt;number&lt;/font&gt;&lt;/font&gt;&lt;/div&gt;&lt;div&gt;&lt;div&gt;&lt;font face=&quot;Lucida Console&quot;&gt;userId:&lt;font color=&quot;#57e389&quot;&gt;number&lt;/font&gt;&lt;/font&gt;&lt;div&gt;&lt;font face=&quot;Lucida Console&quot;&gt;ach1Completed:&lt;font color=&quot;#57e389&quot;&gt;boolean&lt;/font&gt;&lt;/font&gt;&lt;/div&gt;&lt;/div&gt;&lt;/div&gt;&lt;div&gt;&lt;div&gt;&lt;div&gt;&lt;font face=&quot;Lucida Console&quot;&gt;ach1Collected:&lt;font color=&quot;#57e389&quot;&gt;boolean&lt;/font&gt;&lt;/font&gt;&lt;/div&gt;&lt;/div&gt;&lt;div&gt;&lt;font face=&quot;Lucida Console&quot;&gt;ach1Date:&lt;font color=&quot;#57e389&quot;&gt;Date&lt;/font&gt;&lt;/font&gt;&lt;/div&gt;&lt;div&gt;&lt;font face=&quot;Lucida Console&quot;&gt;&lt;font color=&quot;#57e389&quot;&gt;&lt;/font&gt;&lt;/font&gt;&lt;div&gt;&lt;font face=&quot;Lucida Console&quot;&gt;ach2Completed:&lt;font color=&quot;#57e389&quot;&gt;boolean&lt;/font&gt;&lt;/font&gt;&lt;/div&gt;&lt;div&gt;&lt;div&gt;&lt;div&gt;&lt;font face=&quot;Lucida Console&quot;&gt;ach2Collected:&lt;font color=&quot;#57e389&quot;&gt;boolean&lt;/font&gt;&lt;/font&gt;&lt;/div&gt;&lt;/div&gt;&lt;div&gt;&lt;font face=&quot;Lucida Console&quot;&gt;ach2Date:&lt;font color=&quot;#57e389&quot;&gt;Date&lt;/font&gt;&lt;/font&gt;&lt;/div&gt;&lt;/div&gt;&lt;/div&gt;&lt;div&gt;&lt;font face=&quot;Lucida Console&quot; color=&quot;#808080&quot;&gt;[...]&lt;/font&gt;&lt;font face=&quot;Lucida Console&quot;&gt;&lt;br&gt;&lt;/font&gt;&lt;/div&gt;&lt;div&gt;&lt;div&gt;&lt;font face=&quot;Lucida Console&quot;&gt;ach50Completed:&lt;font color=&quot;#57e389&quot;&gt;boolean&lt;/font&gt;&lt;/font&gt;&lt;/div&gt;&lt;div&gt;&lt;div&gt;&lt;font face=&quot;Lucida Console&quot;&gt;ach50Collected:&lt;font color=&quot;#57e389&quot;&gt;boolean&lt;/font&gt;&lt;/font&gt;&lt;/div&gt;&lt;/div&gt;&lt;div&gt;&lt;font face=&quot;Lucida Console&quot;&gt;ach50Date:&lt;font color=&quot;#57e389&quot;&gt;Date&lt;/font&gt;&lt;/font&gt;&lt;/div&gt;&lt;/div&gt;&lt;/div&gt;" style="align=left;strokeColor=none;fillColor=none;spacingLeft=4;fontSize=12;verticalAlign=top;resizable=0;rotatable=0;part=1;html=1;" vertex="1" parent="j-FZtMcil6Uh2wWwceDC-120">
          <mxGeometry y="50" width="175" height="220" as="geometry" />
        </mxCell>
        <mxCell id="j-FZtMcil6Uh2wWwceDC-122" value="" style="fontSize=12;html=1;endArrow=ERmandOne;rounded=0;exitX=-0.011;exitY=0.217;exitDx=0;exitDy=0;exitPerimeter=0;entryX=1.013;entryY=0.845;entryDx=0;entryDy=0;entryPerimeter=0;edgeStyle=elbowEdgeStyle;" edge="1" parent="1" source="j-FZtMcil6Uh2wWwceDC-29" target="j-FZtMcil6Uh2wWwceDC-121">
          <mxGeometry width="100" height="100" relative="1" as="geometry">
            <mxPoint x="362" y="701" as="sourcePoint" />
            <mxPoint x="240" y="450" as="targetPoint" />
          </mxGeometry>
        </mxCell>
        <mxCell id="j-FZtMcil6Uh2wWwceDC-123" value="&lt;b&gt;AchievementData&lt;/b&gt;" style="swimlane;childLayout=stackLayout;horizontal=1;startSize=50;horizontalStack=0;rounded=1;fontSize=14;fontStyle=0;strokeWidth=2;resizeParent=0;resizeLast=1;shadow=0;dashed=0;align=center;arcSize=4;whiteSpace=wrap;html=1;fillColor=#ffe6cc;strokeColor=#d79b00;" vertex="1" parent="1">
          <mxGeometry x="40" y="550" width="175" height="210" as="geometry">
            <mxRectangle x="425" y="280" width="80" height="50" as="alternateBounds" />
          </mxGeometry>
        </mxCell>
        <mxCell id="j-FZtMcil6Uh2wWwceDC-124" value="&lt;div&gt;&lt;font color=&quot;#ff66ff&quot;&gt;CONFIGURATION TABLE&lt;/font&gt;&lt;br&gt;&lt;/div&gt;&lt;div&gt;&lt;font face=&quot;Lucida Console&quot;&gt;id:&lt;font color=&quot;#57e389&quot;&gt;number&lt;/font&gt;&lt;/font&gt;&lt;/div&gt;&lt;div&gt;&lt;div&gt;&lt;font face=&quot;Lucida Console&quot;&gt;code:&lt;font color=&quot;#57e389&quot;&gt;string&lt;/font&gt;&lt;/font&gt;&lt;div&gt;&lt;font face=&quot;Lucida Console&quot;&gt;description:&lt;font color=&quot;#57e389&quot;&gt;string&lt;/font&gt;&lt;/font&gt;&lt;/div&gt;&lt;/div&gt;&lt;/div&gt;&lt;div&gt;&lt;div&gt;&lt;div&gt;&lt;font face=&quot;Lucida Console&quot;&gt;type:&lt;font color=&quot;#57e389&quot;&gt;string&lt;/font&gt;&lt;/font&gt;&lt;/div&gt;&lt;/div&gt;&lt;div&gt;&lt;font face=&quot;Lucida Console&quot;&gt;xp:&lt;font color=&quot;#57e389&quot;&gt;number&lt;/font&gt;&lt;/font&gt;&lt;/div&gt;&lt;div&gt;&lt;font face=&quot;Lucida Console&quot;&gt;&lt;font color=&quot;#57e389&quot;&gt;&lt;/font&gt;&lt;/font&gt;&lt;div&gt;&lt;font face=&quot;Lucida Console&quot;&gt;icone:&lt;font color=&quot;#57e389&quot;&gt;string&lt;/font&gt;&lt;/font&gt;&lt;/div&gt;&lt;div&gt;&lt;div&gt;&lt;div&gt;&lt;font face=&quot;Lucida Console&quot;&gt;value:&lt;font color=&quot;#57e389&quot;&gt;number&lt;/font&gt;&lt;/font&gt;&lt;/div&gt;&lt;/div&gt;&lt;div&gt;&lt;font face=&quot;Lucida Console&quot;&gt;ach2Date:&lt;font color=&quot;#57e389&quot;&gt;Date&lt;/font&gt;&lt;/font&gt;&lt;/div&gt;&lt;/div&gt;&lt;/div&gt;&lt;/div&gt;" style="align=left;strokeColor=none;fillColor=none;spacingLeft=4;fontSize=12;verticalAlign=top;resizable=0;rotatable=0;part=1;html=1;" vertex="1" parent="j-FZtMcil6Uh2wWwceDC-123">
          <mxGeometry y="50" width="175" height="160" as="geometry" />
        </mxCell>
        <mxCell id="j-FZtMcil6Uh2wWwceDC-127" value="&lt;b&gt;ExperienceData&lt;/b&gt;" style="swimlane;childLayout=stackLayout;horizontal=1;startSize=50;horizontalStack=0;rounded=1;fontSize=14;fontStyle=0;strokeWidth=2;resizeParent=0;resizeLast=1;shadow=0;dashed=0;align=center;arcSize=4;whiteSpace=wrap;html=1;fillColor=#dae8fc;strokeColor=#6c8ebf;" vertex="1" parent="1">
          <mxGeometry x="560" y="40" width="175" height="140" as="geometry">
            <mxRectangle x="425" y="280" width="80" height="50" as="alternateBounds" />
          </mxGeometry>
        </mxCell>
        <mxCell id="j-FZtMcil6Uh2wWwceDC-128" value="&lt;div&gt;&lt;font color=&quot;#ff66ff&quot;&gt;CONFIGURATION TABLE&lt;/font&gt;&lt;/div&gt;&lt;div&gt;&lt;font face=&quot;Lucida Console&quot;&gt;id:&lt;font color=&quot;#57e389&quot;&gt;number&lt;/font&gt;&lt;/font&gt;&lt;/div&gt;&lt;div&gt;&lt;div&gt;&lt;font face=&quot;Lucida Console&quot;&gt;level:&lt;font color=&quot;#57e389&quot;&gt;number&lt;/font&gt;&lt;/font&gt;&lt;div&gt;&lt;font face=&quot;Lucida Console&quot;&gt;levelXP:&lt;font color=&quot;#57e389&quot;&gt;number&lt;/font&gt;&lt;/font&gt;&lt;/div&gt;&lt;/div&gt;&lt;/div&gt;&lt;div&gt;&lt;div&gt;&lt;font face=&quot;Lucida Console&quot;&gt;cumulativeXP:&lt;font color=&quot;#57e389&quot;&gt;number&lt;/font&gt;&lt;/font&gt;&lt;/div&gt;&lt;/div&gt;" style="align=left;strokeColor=none;fillColor=none;spacingLeft=4;fontSize=12;verticalAlign=top;resizable=0;rotatable=0;part=1;html=1;" vertex="1" parent="j-FZtMcil6Uh2wWwceDC-127">
          <mxGeometry y="50" width="175" height="90" as="geometry" />
        </mxCell>
        <mxCell id="j-FZtMcil6Uh2wWwceDC-129" value="&lt;b&gt;Story&lt;/b&gt;" style="swimlane;childLayout=stackLayout;horizontal=1;startSize=50;horizontalStack=0;rounded=1;fontSize=14;fontStyle=0;strokeWidth=2;resizeParent=0;resizeLast=1;shadow=0;dashed=0;align=center;arcSize=4;whiteSpace=wrap;html=1;fillColor=#fff2cc;strokeColor=#d6b656;" vertex="1" parent="1">
          <mxGeometry x="640" y="260" width="175" height="220" as="geometry">
            <mxRectangle x="425" y="280" width="80" height="50" as="alternateBounds" />
          </mxGeometry>
        </mxCell>
        <mxCell id="j-FZtMcil6Uh2wWwceDC-130" value="&lt;div&gt;&lt;font face=&quot;Lucida Console&quot;&gt;id:&lt;font color=&quot;#57e389&quot;&gt;number&lt;/font&gt;&lt;/font&gt;&lt;/div&gt;&lt;div&gt;&lt;div&gt;&lt;font face=&quot;Lucida Console&quot;&gt;userId:&lt;font color=&quot;#57e389&quot;&gt;number&lt;/font&gt;&lt;/font&gt;&lt;div&gt;&lt;font face=&quot;Lucida Console&quot;&gt;levelCompleted1:&lt;font color=&quot;#57e389&quot;&gt;number&lt;/font&gt;&lt;/font&gt;&lt;/div&gt;&lt;/div&gt;&lt;/div&gt;&lt;div&gt;&lt;div&gt;&lt;font face=&quot;Lucida Console&quot;&gt;levelAttempted1:&lt;font color=&quot;#57e389&quot;&gt;number&lt;/font&gt;&lt;/font&gt;&lt;/div&gt;&lt;div&gt;&lt;div&gt;&lt;font face=&quot;Lucida Console&quot;&gt;levelCompleted2:&lt;font color=&quot;#57e389&quot;&gt;number&lt;/font&gt;&lt;/font&gt;&lt;/div&gt;&lt;div&gt;&lt;font face=&quot;Lucida Console&quot;&gt;levelAttempted2:&lt;font color=&quot;#57e389&quot;&gt;number&lt;/font&gt;&lt;/font&gt;&lt;/div&gt;&lt;/div&gt;&lt;/div&gt;&lt;div&gt;&lt;font face=&quot;Lucida Console&quot; color=&quot;#808080&quot;&gt;[...]&lt;/font&gt;&lt;font face=&quot;Lucida Console&quot;&gt;&lt;br&gt;&lt;/font&gt;&lt;/div&gt;&lt;div&gt;&lt;div&gt;&lt;div&gt;&lt;font face=&quot;Lucida Console&quot;&gt;levelCompleted10:&lt;font color=&quot;#57e389&quot;&gt;number&lt;/font&gt;&lt;/font&gt;&lt;/div&gt;&lt;div&gt;&lt;font face=&quot;Lucida Console&quot;&gt;levelAttempted10:&lt;font color=&quot;#57e389&quot;&gt;number&lt;/font&gt;&lt;/font&gt;&lt;/div&gt;&lt;/div&gt;&lt;/div&gt;" style="align=left;strokeColor=none;fillColor=none;spacingLeft=4;fontSize=12;verticalAlign=top;resizable=0;rotatable=0;part=1;html=1;" vertex="1" parent="j-FZtMcil6Uh2wWwceDC-129">
          <mxGeometry y="50" width="175" height="170" as="geometry" />
        </mxCell>
        <mxCell id="j-FZtMcil6Uh2wWwceDC-133" value="&lt;b&gt;StoryData&lt;/b&gt;" style="swimlane;childLayout=stackLayout;horizontal=1;startSize=50;horizontalStack=0;rounded=1;fontSize=14;fontStyle=0;strokeWidth=2;resizeParent=0;resizeLast=1;shadow=0;dashed=0;align=center;arcSize=4;whiteSpace=wrap;html=1;fillColor=#fff2cc;strokeColor=#d6b656;" vertex="1" parent="1">
          <mxGeometry x="640" y="510" width="175" height="250" as="geometry">
            <mxRectangle x="425" y="280" width="80" height="50" as="alternateBounds" />
          </mxGeometry>
        </mxCell>
        <mxCell id="j-FZtMcil6Uh2wWwceDC-134" value="&lt;div&gt;&lt;font color=&quot;#ff66ff&quot;&gt;CONFIGURATION TABLE&lt;/font&gt;&lt;/div&gt;&lt;div&gt;&lt;font face=&quot;Lucida Console&quot;&gt;id:&lt;font color=&quot;#57e389&quot;&gt;number&lt;/font&gt;&lt;/font&gt;&lt;/div&gt;&lt;div&gt;&lt;div&gt;&lt;font face=&quot;Lucida Console&quot;&gt;level:&lt;font color=&quot;#57e389&quot;&gt;number&lt;/font&gt;&lt;/font&gt;&lt;div&gt;&lt;font face=&quot;Lucida Console&quot;&gt;name:&lt;font color=&quot;#57e389&quot;&gt;string&lt;/font&gt;&lt;/font&gt;&lt;/div&gt;&lt;/div&gt;&lt;/div&gt;&lt;div&gt;&lt;div&gt;&lt;font face=&quot;Lucida Console&quot;&gt;maxPoint:&lt;font color=&quot;#57e389&quot;&gt;number&lt;/font&gt;&lt;/font&gt;&lt;/div&gt;&lt;div&gt;&lt;div&gt;&lt;font face=&quot;Lucida Console&quot;&gt;maxRound:&lt;font color=&quot;#57e389&quot;&gt;number&lt;/font&gt;&lt;/font&gt;&lt;/div&gt;&lt;div&gt;&lt;font face=&quot;Lucida Console&quot;&gt;difficulty:&lt;font color=&quot;#57e389&quot;&gt;number&lt;/font&gt;&lt;/font&gt;&lt;/div&gt;&lt;/div&gt;&lt;/div&gt;&lt;div&gt;&lt;font face=&quot;Lucida Console&quot;&gt;push:&lt;font color=&quot;#57e389&quot;&gt;boolean&lt;/font&gt;&lt;/font&gt;&lt;/div&gt;&lt;div&gt;&lt;div&gt;&lt;font face=&quot;Lucida Console&quot;&gt;pause:&lt;font color=&quot;#57e389&quot;&gt;boolean&lt;/font&gt;&lt;/font&gt;&lt;/div&gt;&lt;/div&gt;&lt;div&gt;&lt;div&gt;&lt;div&gt;&lt;font face=&quot;Lucida Console&quot;&gt;background:&lt;font color=&quot;#57e389&quot;&gt;string&lt;/font&gt;&lt;/font&gt;&lt;/div&gt;&lt;div&gt;&lt;div&gt;&lt;div&gt;&lt;div&gt;&lt;font face=&quot;Lucida Console&quot;&gt;ball:&lt;font color=&quot;#57e389&quot;&gt;string&lt;/font&gt;&lt;/font&gt;&lt;/div&gt;&lt;/div&gt;&lt;/div&gt;&lt;/div&gt;&lt;/div&gt;&lt;/div&gt;" style="align=left;strokeColor=none;fillColor=none;spacingLeft=4;fontSize=12;verticalAlign=top;resizable=0;rotatable=0;part=1;html=1;" vertex="1" parent="j-FZtMcil6Uh2wWwceDC-133">
          <mxGeometry y="50" width="175" height="200" as="geometry" />
        </mxCell>
        <mxCell id="j-FZtMcil6Uh2wWwceDC-139" value="&lt;b&gt;Training&lt;/b&gt;" style="swimlane;childLayout=stackLayout;horizontal=1;startSize=50;horizontalStack=0;rounded=1;fontSize=14;fontStyle=0;strokeWidth=2;resizeParent=0;resizeLast=1;shadow=0;dashed=0;align=center;arcSize=4;whiteSpace=wrap;html=1;fillColor=#e1d5e7;strokeColor=#9673a6;" vertex="1" parent="1">
          <mxGeometry x="970" y="510" width="175" height="250" as="geometry">
            <mxRectangle x="425" y="280" width="80" height="50" as="alternateBounds" />
          </mxGeometry>
        </mxCell>
        <mxCell id="j-FZtMcil6Uh2wWwceDC-140" value="&lt;div&gt;&lt;font face=&quot;Lucida Console&quot;&gt;id:&lt;font color=&quot;#57e389&quot;&gt;number&lt;/font&gt;&lt;/font&gt;&lt;/div&gt;&lt;div&gt;&lt;div&gt;&lt;font face=&quot;Lucida Console&quot;&gt;name:&lt;font color=&quot;#57e389&quot;&gt;string&lt;/font&gt;&lt;/font&gt;&lt;div&gt;&lt;font face=&quot;Lucida Console&quot;&gt;type:&lt;font color=&quot;#57e389&quot;&gt;sring&lt;/font&gt;&lt;/font&gt;&lt;/div&gt;&lt;/div&gt;&lt;/div&gt;&lt;div&gt;&lt;div&gt;&lt;font face=&quot;Lucida Console&quot;&gt;storyLevel:&lt;font color=&quot;#57e389&quot;&gt;number&lt;/font&gt;&lt;/font&gt;&lt;/div&gt;&lt;div&gt;&lt;div&gt;&lt;font face=&quot;Lucida Console&quot;&gt;player:&lt;font color=&quot;#57e389&quot;&gt;number&lt;/font&gt;&lt;/font&gt;&lt;/div&gt;&lt;div&gt;&lt;font face=&quot;Lucida Console&quot;&gt;side:&lt;font color=&quot;#57e389&quot;&gt;number&lt;/font&gt;&lt;/font&gt;&lt;/div&gt;&lt;/div&gt;&lt;/div&gt;&lt;div&gt;&lt;font face=&quot;Lucida Console&quot;&gt;score:&lt;font color=&quot;#57e389&quot;&gt;Score&lt;/font&gt;&lt;/font&gt;&lt;/div&gt;&lt;div&gt;&lt;div&gt;&lt;font face=&quot;Lucida Console&quot;&gt;pause:&lt;font color=&quot;#57e389&quot;&gt;boolean&lt;/font&gt;&lt;/font&gt;&lt;/div&gt;&lt;/div&gt;&lt;div&gt;&lt;div&gt;&lt;div&gt;&lt;font face=&quot;Lucida Console&quot;&gt;background:&lt;font color=&quot;#57e389&quot;&gt;string&lt;/font&gt;&lt;/font&gt;&lt;/div&gt;&lt;div&gt;&lt;div&gt;&lt;div&gt;&lt;div&gt;&lt;font face=&quot;Lucida Console&quot;&gt;ball:&lt;font color=&quot;#57e389&quot;&gt;string&lt;/font&gt;&lt;/font&gt;&lt;/div&gt;&lt;div&gt;&lt;font color=&quot;#cccccc&quot; face=&quot;Lucida Console&quot;&gt;[...]&lt;br&gt;&lt;/font&gt;&lt;/div&gt;&lt;/div&gt;&lt;/div&gt;&lt;/div&gt;&lt;/div&gt;&lt;/div&gt;" style="align=left;strokeColor=none;fillColor=none;spacingLeft=4;fontSize=12;verticalAlign=top;resizable=0;rotatable=0;part=1;html=1;" vertex="1" parent="j-FZtMcil6Uh2wWwceDC-139">
          <mxGeometry y="50" width="175" height="200" as="geometry" />
        </mxCell>
        <mxCell id="j-FZtMcil6Uh2wWwceDC-141" value="&lt;b&gt;Score&lt;/b&gt;" style="swimlane;childLayout=stackLayout;horizontal=1;startSize=50;horizontalStack=0;rounded=1;fontSize=14;fontStyle=0;strokeWidth=2;resizeParent=0;resizeLast=1;shadow=0;dashed=0;align=center;arcSize=4;whiteSpace=wrap;html=1;fillColor=#e1d5e7;strokeColor=#9673a6;" vertex="1" parent="1">
          <mxGeometry x="860" y="260" width="175" height="230" as="geometry">
            <mxRectangle x="425" y="280" width="80" height="50" as="alternateBounds" />
          </mxGeometry>
        </mxCell>
        <mxCell id="j-FZtMcil6Uh2wWwceDC-142" value="&lt;div&gt;&lt;font face=&quot;Lucida Console&quot;&gt;id:&lt;font color=&quot;#57e389&quot;&gt;number&lt;/font&gt;&lt;/font&gt;&lt;/div&gt;&lt;div&gt;&lt;div&gt;&lt;font face=&quot;Lucida Console&quot;&gt;gameId:&lt;font color=&quot;#57e389&quot;&gt;string&lt;/font&gt;&lt;/font&gt;&lt;div&gt;&lt;font face=&quot;Lucida Console&quot;&gt;mode:&lt;font color=&quot;#57e389&quot;&gt;sring&lt;/font&gt;&lt;/font&gt;&lt;/div&gt;&lt;/div&gt;&lt;/div&gt;&lt;div&gt;&lt;div&gt;&lt;font face=&quot;Lucida Console&quot;&gt;leftplayerId:&lt;font color=&quot;#57e389&quot;&gt;number&lt;/font&gt;&lt;/font&gt;&lt;/div&gt;&lt;div&gt;&lt;div&gt;&lt;font face=&quot;Lucida Console&quot;&gt;rightPlayerId:&lt;font color=&quot;#57e389&quot;&gt;number&lt;/font&gt;&lt;/font&gt;&lt;/div&gt;&lt;div&gt;&lt;font face=&quot;Lucida Console&quot;&gt;leftPlayerRound1:&lt;font color=&quot;#57e389&quot;&gt;number&lt;/font&gt;&lt;/font&gt;&lt;/div&gt;&lt;div&gt;&lt;div&gt;&lt;font face=&quot;Lucida Console&quot;&gt;rightPlayerRound1:&lt;font color=&quot;#57e389&quot;&gt;number&lt;/font&gt;&lt;/font&gt;&lt;/div&gt;&lt;div&gt;&lt;div&gt;&lt;font face=&quot;Lucida Console&quot;&gt;leftPlayerRound2:&lt;font color=&quot;#57e389&quot;&gt;number&lt;/font&gt;&lt;/font&gt;&lt;/div&gt;&lt;div&gt;&lt;div&gt;&lt;font face=&quot;Lucida Console&quot;&gt;rightPlayerRound2:&lt;font color=&quot;#57e389&quot;&gt;number&lt;/font&gt;&lt;/font&gt;&lt;/div&gt;&lt;/div&gt;&lt;/div&gt;&lt;/div&gt;&lt;/div&gt;&lt;/div&gt;&lt;div&gt;&lt;div&gt;&lt;div&gt;&lt;div&gt;&lt;div&gt;&lt;div&gt;&lt;font color=&quot;#cccccc&quot; face=&quot;Lucida Console&quot;&gt;[...]&lt;br&gt;&lt;/font&gt;&lt;/div&gt;&lt;/div&gt;&lt;/div&gt;&lt;/div&gt;&lt;/div&gt;&lt;/div&gt;" style="align=left;strokeColor=none;fillColor=none;spacingLeft=4;fontSize=12;verticalAlign=top;resizable=0;rotatable=0;part=1;html=1;" vertex="1" parent="j-FZtMcil6Uh2wWwceDC-141">
          <mxGeometry y="50" width="175" height="180" as="geometry" />
        </mxCell>
        <mxCell id="j-FZtMcil6Uh2wWwceDC-144" value="" style="edgeStyle=orthogonalEdgeStyle;fontSize=12;html=1;endArrow=ERmandOne;rounded=0;elbow=vertical;entryX=0.399;entryY=1.003;entryDx=0;entryDy=0;entryPerimeter=0;" edge="1" parent="1" target="j-FZtMcil6Uh2wWwceDC-142">
          <mxGeometry width="100" height="100" relative="1" as="geometry">
            <mxPoint x="970" y="683" as="sourcePoint" />
            <mxPoint x="891" y="490" as="targetPoint" />
            <Array as="points">
              <mxPoint x="930" y="683" />
            </Array>
          </mxGeometry>
        </mxCell>
        <mxCell id="j-FZtMcil6Uh2wWwceDC-145" value="&lt;b&gt;Game&lt;/b&gt;" style="swimlane;childLayout=stackLayout;horizontal=1;startSize=50;horizontalStack=0;rounded=1;fontSize=14;fontStyle=0;strokeWidth=2;resizeParent=0;resizeLast=1;shadow=0;dashed=0;align=center;arcSize=4;whiteSpace=wrap;html=1;fillColor=#e1d5e7;strokeColor=#9673a6;" vertex="1" parent="1">
          <mxGeometry x="970" y="40" width="175" height="200" as="geometry">
            <mxRectangle x="425" y="280" width="80" height="50" as="alternateBounds" />
          </mxGeometry>
        </mxCell>
        <mxCell id="j-FZtMcil6Uh2wWwceDC-146" value="&lt;div&gt;&lt;font face=&quot;Lucida Console&quot;&gt;id:&lt;font color=&quot;#57e389&quot;&gt;number&lt;/font&gt;&lt;/font&gt;&lt;/div&gt;&lt;div&gt;&lt;div&gt;&lt;font face=&quot;Lucida Console&quot;&gt;name:&lt;font color=&quot;#57e389&quot;&gt;string&lt;/font&gt;&lt;/font&gt;&lt;div&gt;&lt;font face=&quot;Lucida Console&quot;&gt;type:&lt;font color=&quot;#57e389&quot;&gt;sring&lt;/font&gt;&lt;/font&gt;&lt;/div&gt;&lt;/div&gt;&lt;/div&gt;&lt;div&gt;&lt;div&gt;&lt;font face=&quot;Lucida Console&quot;&gt;mode:&lt;font color=&quot;#57e389&quot;&gt;string&lt;/font&gt;&lt;/font&gt;&lt;/div&gt;&lt;div&gt;&lt;div&gt;&lt;font face=&quot;Lucida Console&quot;&gt;host:&lt;font color=&quot;#57e389&quot;&gt;number&lt;/font&gt;&lt;/font&gt;&lt;/div&gt;&lt;div&gt;&lt;font face=&quot;Lucida Console&quot;&gt;opponent:&lt;font color=&quot;#57e389&quot;&gt;number&lt;/font&gt;&lt;/font&gt;&lt;/div&gt;&lt;/div&gt;&lt;/div&gt;&lt;div&gt;&lt;font face=&quot;Lucida Console&quot;&gt;score:&lt;font color=&quot;#57e389&quot;&gt;Score&lt;/font&gt;&lt;/font&gt;&lt;/div&gt;&lt;div&gt;&lt;div&gt;&lt;div&gt;&lt;div&gt;&lt;div&gt;&lt;div&gt;&lt;font color=&quot;#cccccc&quot; face=&quot;Lucida Console&quot;&gt;[...]&lt;br&gt;&lt;/font&gt;&lt;/div&gt;&lt;/div&gt;&lt;/div&gt;&lt;/div&gt;&lt;/div&gt;&lt;/div&gt;" style="align=left;strokeColor=none;fillColor=none;spacingLeft=4;fontSize=12;verticalAlign=top;resizable=0;rotatable=0;part=1;html=1;" vertex="1" parent="j-FZtMcil6Uh2wWwceDC-145">
          <mxGeometry y="50" width="175" height="150" as="geometry" />
        </mxCell>
        <mxCell id="j-FZtMcil6Uh2wWwceDC-147" value="" style="edgeStyle=orthogonalEdgeStyle;fontSize=12;html=1;endArrow=ERmandOne;rounded=0;elbow=vertical;" edge="1" parent="1" target="j-FZtMcil6Uh2wWwceDC-141">
          <mxGeometry width="100" height="100" relative="1" as="geometry">
            <mxPoint x="970" y="190" as="sourcePoint" />
            <mxPoint x="890" y="33.98000000000002" as="targetPoint" />
            <Array as="points">
              <mxPoint x="970" y="190" />
              <mxPoint x="930" y="190" />
            </Array>
          </mxGeometry>
        </mxCell>
      </root>
    </mxGraphModel>
  </diagram>
</mxfile>
